<mxfile type="device" compressed="false"><diagram id="9a203b6b2b4cf397714fa7e0fee767dc" name="synthmed"><mxGraphModel dx="1434" dy="822" grid="1" gridSize="10" guides="1" tooltips="1" connect="1" arrows="1" fold="1" page="1" pageScale="1" pageWidth="850" pageHeight="1100" math="0" shadow="0"><root><mxCell id="0" /><mxCell id="1" parent="0" /><mxCell id="8e1d68539b7642d4867fb4e15b7fb71c" value="" style="container=1;collapsible=0;expand=0;recursiveResize=0;image=;strokeColor=#1192e8;fillColor=#ffffff;strokeWidth=1;" vertex="1" parent="1"><mxGeometry x="0" y="0" width="240" height="444" as="geometry" /></mxCell><mxCell id="8e1d68539b7642d4867fb4e15b7fb71c-label" value="&lt;b style='font-weight:600'&gt;Public Network&lt;/b&gt;&lt;br&gt;" style="shape=rect;strokeColor=none;fillColor=none;aspect=fixed;resizable=0;html=1;labelPosition=right;verticalLabelPosition=middle;align=left;verticalAlign=middle;part=1;spacingLeft=5;fontFamily=IBM Plex Sans;fontSize=14;" vertex="1" parent="8e1d68539b7642d4867fb4e15b7fb71c"><mxGeometry width="48" height="48" relative="1" as="geometry" /></mxCell><mxCell id="8e1d68539b7642d4867fb4e15b7fb71c-icon" value="" style="shape=mxgraph.ibm_cloud.network--public;strokeColor=none;fillColor=#1192e8;aspect=fixed;resizable=0;rotatable=0;labelPosition=right;verticalLabelPosition=middle;align=left;verticalAlign=middle;part=1;dashed=0;outlineConnect=0;spacingLeft=5;" vertex="1" parent="8e1d68539b7642d4867fb4e15b7fb71c-label"><mxGeometry width="24" height="24" relative="1" as="geometry"><mxPoint x="12" y="12" as="offset" /></mxGeometry></mxCell><mxCell id="8e1d68539b7642d4867fb4e15b7fb71c-sidebar" value="" style="shape=rect;strokeColor=none;fillColor=#1192e8;aspect=fixed;resizable=0;part=1;spacingLeft=5;" vertex="1" parent="8e1d68539b7642d4867fb4e15b7fb71c"><mxGeometry width="4" height="48" relative="1" as="geometry" /></mxCell><mxCell id="20e9e965db0b4d0dad0e955d3e27703a" value="&lt;b style='font-weight:600'&gt;PubMed&lt;/b&gt;&lt;br&gt;" style="shape=rect;fillColor=#ee5396;;aspect=fixed;resizable=0;html=1;labelPosition=center;verticalLabelPosition=bottom;align=center;verticalAlign=top;strokeColor=none;fontFamily=IBM Plex Sans;fontSize=14;" vertex="1" parent="8e1d68539b7642d4867fb4e15b7fb71c"><mxGeometry x="96.0" y="60" width="48" height="48" as="geometry" /></mxCell><mxCell id="20e9e965db0b4d0dad0e955d3e27703a-icon" value="" style="shape=mxgraph.ibm_cloud.repo--source-code;fillColor=#ffffff;strokeColor=none;dashed=0;outlineConnect=0;part=1;movable=0;resizable=0;rotatable=0;" vertex="1" parent="20e9e965db0b4d0dad0e955d3e27703a"><mxGeometry width="24" height="24" relative="1" as="geometry"><mxPoint x="12" y="12" as="offset" /></mxGeometry></mxCell><mxCell id="924bd83637ec478ba24c5e5c10d0de9e" value="&lt;b style='font-weight:600'&gt;Engineer&lt;/b&gt;&lt;br&gt;" style="shape=ellipse;fillColor=#000000;;aspect=fixed;resizable=0;html=1;labelPosition=center;verticalLabelPosition=bottom;align=center;verticalAlign=top;strokeColor=none;fontFamily=IBM Plex Sans;fontSize=14;" vertex="1" parent="8e1d68539b7642d4867fb4e15b7fb71c"><mxGeometry x="96.0" y="188" width="48" height="48" as="geometry" /></mxCell><mxCell id="924bd83637ec478ba24c5e5c10d0de9e-icon" value="" style="shape=mxgraph.ibm_cloud.user;fillColor=#ffffff;strokeColor=none;dashed=0;outlineConnect=0;part=1;movable=0;resizable=0;rotatable=0;" vertex="1" parent="924bd83637ec478ba24c5e5c10d0de9e"><mxGeometry width="24" height="24" relative="1" as="geometry"><mxPoint x="12" y="12" as="offset" /></mxGeometry></mxCell><mxCell id="4e91c3a19b964d469503a44414a8090a" value="&lt;b style='font-weight:600'&gt;Researcher&lt;/b&gt;&lt;br&gt;" style="shape=ellipse;fillColor=#000000;;aspect=fixed;resizable=0;html=1;labelPosition=center;verticalLabelPosition=bottom;align=center;verticalAlign=top;strokeColor=none;fontFamily=IBM Plex Sans;fontSize=14;" vertex="1" parent="8e1d68539b7642d4867fb4e15b7fb71c"><mxGeometry x="96.0" y="316" width="48" height="48" as="geometry" /></mxCell><mxCell id="4e91c3a19b964d469503a44414a8090a-icon" value="" style="shape=mxgraph.ibm_cloud.user;fillColor=#ffffff;strokeColor=none;dashed=0;outlineConnect=0;part=1;movable=0;resizable=0;rotatable=0;" vertex="1" parent="4e91c3a19b964d469503a44414a8090a"><mxGeometry width="24" height="24" relative="1" as="geometry"><mxPoint x="12" y="12" as="offset" /></mxGeometry></mxCell><mxCell id="42ab4dd5dfde48c4b0fb5838cb0d6dd2" value="" style="container=1;collapsible=0;expand=0;recursiveResize=0;image=;strokeColor=#1192e8;fillColor=#ffffff;strokeWidth=1;" vertex="1" parent="1"><mxGeometry x="260" y="0" width="1236" height="1636" as="geometry" /></mxCell><mxCell id="42ab4dd5dfde48c4b0fb5838cb0d6dd2-label" value="&lt;b style='font-weight:600'&gt;IBM Cloud&lt;/b&gt;&lt;br&gt;" style="shape=rect;strokeColor=none;fillColor=none;aspect=fixed;resizable=0;html=1;labelPosition=right;verticalLabelPosition=middle;align=left;verticalAlign=middle;part=1;spacingLeft=5;fontFamily=IBM Plex Sans;fontSize=14;" vertex="1" parent="42ab4dd5dfde48c4b0fb5838cb0d6dd2"><mxGeometry width="48" height="48" relative="1" as="geometry" /></mxCell><mxCell id="42ab4dd5dfde48c4b0fb5838cb0d6dd2-icon" value="" style="shape=mxgraph.ibm_cloud.ibm-cloud;strokeColor=none;fillColor=#1192e8;aspect=fixed;resizable=0;rotatable=0;labelPosition=right;verticalLabelPosition=middle;align=left;verticalAlign=middle;part=1;dashed=0;outlineConnect=0;spacingLeft=5;" vertex="1" parent="42ab4dd5dfde48c4b0fb5838cb0d6dd2-label"><mxGeometry width="24" height="24" relative="1" as="geometry"><mxPoint x="12" y="12" as="offset" /></mxGeometry></mxCell><mxCell id="42ab4dd5dfde48c4b0fb5838cb0d6dd2-sidebar" value="" style="shape=rect;strokeColor=none;fillColor=#1192e8;aspect=fixed;resizable=0;part=1;spacingLeft=5;" vertex="1" parent="42ab4dd5dfde48c4b0fb5838cb0d6dd2"><mxGeometry width="4" height="48" relative="1" as="geometry" /></mxCell><mxCell id="55e06855fb684bc6866d9ca9a26c62a0" value="" style="container=1;collapsible=0;expand=0;recursiveResize=0;image=;strokeColor=#878d96;fillColor=#f2f4f8;strokeWidth=1;" vertex="1" parent="42ab4dd5dfde48c4b0fb5838cb0d6dd2"><mxGeometry x="20" y="60" width="1196" height="1516" as="geometry" /></mxCell><mxCell id="55e06855fb684bc6866d9ca9a26c62a0-label" value="&lt;b style='font-weight:600'&gt;Dallas&lt;/b&gt;&lt;br&gt;" style="shape=rect;strokeColor=none;fillColor=none;aspect=fixed;resizable=0;html=1;labelPosition=right;verticalLabelPosition=middle;align=left;verticalAlign=middle;part=1;spacingLeft=5;fontFamily=IBM Plex Sans;fontSize=14;" vertex="1" parent="55e06855fb684bc6866d9ca9a26c62a0"><mxGeometry width="48" height="48" relative="1" as="geometry" /></mxCell><mxCell id="55e06855fb684bc6866d9ca9a26c62a0-icon" value="" style="shape=mxgraph.ibm_cloud.location;strokeColor=none;fillColor=#878d96;aspect=fixed;resizable=0;rotatable=0;labelPosition=right;verticalLabelPosition=middle;align=left;verticalAlign=middle;part=1;dashed=0;outlineConnect=0;spacingLeft=5;" vertex="1" parent="55e06855fb684bc6866d9ca9a26c62a0-label"><mxGeometry width="24" height="24" relative="1" as="geometry"><mxPoint x="12" y="12" as="offset" /></mxGeometry></mxCell><mxCell id="55e06855fb684bc6866d9ca9a26c62a0-sidebar" value="" style="shape=rect;strokeColor=none;fillColor=#878d96;aspect=fixed;resizable=0;part=1;spacingLeft=5;" vertex="1" parent="55e06855fb684bc6866d9ca9a26c62a0"><mxGeometry width="4" height="48" relative="1" as="geometry" /></mxCell><mxCell id="bd06138213d14a2c886c346341701dd9" value="" style="container=1;collapsible=0;expand=0;recursiveResize=0;image=;strokeColor=#a56eff;fillColor=#ffffff;strokeWidth=1;" vertex="1" parent="55e06855fb684bc6866d9ca9a26c62a0"><mxGeometry x="20" y="60" width="1156" height="1396" as="geometry" /></mxCell><mxCell id="bd06138213d14a2c886c346341701dd9-label" value="&lt;b style='font-weight:600'&gt;watsonx&lt;/b&gt;&lt;br&gt;" style="shape=rect;strokeColor=none;fillColor=none;aspect=fixed;resizable=0;html=1;labelPosition=right;verticalLabelPosition=middle;align=left;verticalAlign=middle;part=1;spacingLeft=5;fontFamily=IBM Plex Sans;fontSize=14;" vertex="1" parent="bd06138213d14a2c886c346341701dd9"><mxGeometry width="48" height="48" relative="1" as="geometry" /></mxCell><mxCell id="bd06138213d14a2c886c346341701dd9-icon" value="" style="shape=mxgraph.ibm_cloud.watsonx;strokeColor=none;fillColor=#a56eff;aspect=fixed;resizable=0;rotatable=0;labelPosition=right;verticalLabelPosition=middle;align=left;verticalAlign=middle;part=1;dashed=0;outlineConnect=0;spacingLeft=5;" vertex="1" parent="bd06138213d14a2c886c346341701dd9-label"><mxGeometry width="24" height="24" relative="1" as="geometry"><mxPoint x="12" y="12" as="offset" /></mxGeometry></mxCell><mxCell id="bd06138213d14a2c886c346341701dd9-sidebar" value="" style="shape=rect;strokeColor=none;fillColor=#a56eff;aspect=fixed;resizable=0;part=1;spacingLeft=5;" vertex="1" parent="bd06138213d14a2c886c346341701dd9"><mxGeometry width="4" height="48" relative="1" as="geometry" /></mxCell><mxCell id="d5864348bd6d483bb3f1699352cfc9b0" value="" style="container=1;collapsible=0;expand=0;recursiveResize=0;image=;strokeColor=#a56eff;fillColor=#ffffff;strokeWidth=1;" vertex="1" parent="bd06138213d14a2c886c346341701dd9"><mxGeometry x="20" y="60" width="1116" height="268" as="geometry" /></mxCell><mxCell id="d5864348bd6d483bb3f1699352cfc9b0-label" value="&lt;b style='font-weight:600'&gt;watsonx AI&lt;/b&gt;&lt;br&gt;Build Solutions" style="shape=rect;strokeColor=none;fillColor=none;aspect=fixed;resizable=0;html=1;labelPosition=right;verticalLabelPosition=middle;align=left;verticalAlign=middle;part=1;spacingLeft=5;fontFamily=IBM Plex Sans;fontSize=14;" vertex="1" parent="d5864348bd6d483bb3f1699352cfc9b0"><mxGeometry width="48" height="48" relative="1" as="geometry" /></mxCell><mxCell id="d5864348bd6d483bb3f1699352cfc9b0-icon" value="" style="shape=mxgraph.ibm_cloud.watsonx-ai;strokeColor=none;fillColor=#a56eff;aspect=fixed;resizable=0;rotatable=0;labelPosition=right;verticalLabelPosition=middle;align=left;verticalAlign=middle;part=1;dashed=0;outlineConnect=0;spacingLeft=5;" vertex="1" parent="d5864348bd6d483bb3f1699352cfc9b0-label"><mxGeometry width="24" height="24" relative="1" as="geometry"><mxPoint x="12" y="12" as="offset" /></mxGeometry></mxCell><mxCell id="d5864348bd6d483bb3f1699352cfc9b0-sidebar" value="" style="shape=rect;strokeColor=none;fillColor=#a56eff;aspect=fixed;resizable=0;part=1;spacingLeft=5;" vertex="1" parent="d5864348bd6d483bb3f1699352cfc9b0"><mxGeometry width="4" height="48" relative="1" as="geometry" /></mxCell><mxCell id="8b3dae3003be4e3db51d933fbb654194" value="&lt;b style='font-weight:600'&gt;Prompt Lab&lt;/b&gt;&lt;br&gt;" style="shape=rect;fillColor=#a56eff;;aspect=fixed;resizable=0;html=1;labelPosition=center;verticalLabelPosition=bottom;align=center;verticalAlign=top;strokeColor=none;fontFamily=IBM Plex Sans;fontSize=14;" vertex="1" parent="d5864348bd6d483bb3f1699352cfc9b0"><mxGeometry x="80" y="114" width="48" height="48" as="geometry" /></mxCell><mxCell id="8b3dae3003be4e3db51d933fbb654194-icon" value="" style="shape=mxgraph.ibm_cloud.ibm-watson--studio;fillColor=#ffffff;strokeColor=none;dashed=0;outlineConnect=0;part=1;movable=0;resizable=0;rotatable=0;" vertex="1" parent="8b3dae3003be4e3db51d933fbb654194"><mxGeometry width="24" height="24" relative="1" as="geometry"><mxPoint x="12" y="12" as="offset" /></mxGeometry></mxCell><mxCell id="fef96671491f406287fcfaf12bba62f6" value="" style="container=1;collapsible=0;expand=0;recursiveResize=0;image=;strokeColor=#a56eff;fillColor=#f6f2ff;" vertex="1" parent="d5864348bd6d483bb3f1699352cfc9b0"><mxGeometry x="188" y="60" width="720" height="188" as="geometry" /></mxCell><mxCell id="fef96671491f406287fcfaf12bba62f6-label" value="&lt;b style='font-weight:600'&gt;RAG&lt;/b&gt;&lt;br&gt;" style="shape=rect;strokeColor=none;fillColor=#a56eff;aspect=fixed;resizable=0;html=1;labelPosition=right;verticalLabelPosition=middle;align=left;verticalAlign=middle;part=1;spacingLeft=5;fontFamily=IBM Plex Sans;fontSize=14;" vertex="1" parent="fef96671491f406287fcfaf12bba62f6"><mxGeometry width="48" height="48" relative="1" as="geometry" /></mxCell><mxCell id="fef96671491f406287fcfaf12bba62f6-icon" value="" style="shape=mxgraph.ibm_cloud.application;fillColor=#ffffff;strokeColor=none;dashed=0;outlineConnect=0;html=1;labelPosition=center;verticalLabelPosition=bottom;verticalAlign=top;part=1;movable=0;resizable=0;rotatable=0;" vertex="1" parent="fef96671491f406287fcfaf12bba62f6-label"><mxGeometry width="24" height="24" relative="1" as="geometry"><mxPoint x="12" y="12" as="offset" /></mxGeometry></mxCell><mxCell id="0fe63ce1ccdf439cae52a2da50a22c41" value="&lt;b style='font-weight:600'&gt;Creation&lt;/b&gt;&lt;br&gt;" style="shape=rect;fillColor=#009d9a;;aspect=fixed;resizable=0;html=1;labelPosition=center;verticalLabelPosition=bottom;align=center;verticalAlign=top;strokeColor=none;fontFamily=IBM Plex Sans;fontSize=14;" vertex="1" parent="fef96671491f406287fcfaf12bba62f6"><mxGeometry x="80" y="60" width="48" height="48" as="geometry" /></mxCell><mxCell id="0fe63ce1ccdf439cae52a2da50a22c41-icon" value="" style="shape=mxgraph.ibm_cloud.ibm-cloud--logging;fillColor=#ffffff;strokeColor=none;dashed=0;outlineConnect=0;part=1;movable=0;resizable=0;rotatable=0;" vertex="1" parent="0fe63ce1ccdf439cae52a2da50a22c41"><mxGeometry width="24" height="24" relative="1" as="geometry"><mxPoint x="12" y="12" as="offset" /></mxGeometry></mxCell><mxCell id="fe36fae120d24d01a780a2d069d1bd45" value="&lt;b style='font-weight:600'&gt;Search/Retriev...&lt;/b&gt;&lt;br&gt;" style="shape=rect;fillColor=#009d9a;;aspect=fixed;resizable=0;html=1;labelPosition=center;verticalLabelPosition=bottom;align=center;verticalAlign=top;strokeColor=none;fontFamily=IBM Plex Sans;fontSize=14;" vertex="1" parent="fef96671491f406287fcfaf12bba62f6"><mxGeometry x="208" y="60" width="48" height="48" as="geometry" /></mxCell><mxCell id="fe36fae120d24d01a780a2d069d1bd45-icon" value="" style="shape=mxgraph.ibm_cloud.ibm-cloud--logging;fillColor=#ffffff;strokeColor=none;dashed=0;outlineConnect=0;part=1;movable=0;resizable=0;rotatable=0;" vertex="1" parent="fe36fae120d24d01a780a2d069d1bd45"><mxGeometry width="24" height="24" relative="1" as="geometry"><mxPoint x="12" y="12" as="offset" /></mxGeometry></mxCell><mxCell id="4f2a91219ebd4548a5b7a065cce4ff98" value="&lt;b style='font-weight:600'&gt;Augmentation&lt;/b&gt;&lt;br&gt;" style="shape=rect;fillColor=#009d9a;;aspect=fixed;resizable=0;html=1;labelPosition=center;verticalLabelPosition=bottom;align=center;verticalAlign=top;strokeColor=none;fontFamily=IBM Plex Sans;fontSize=14;" vertex="1" parent="fef96671491f406287fcfaf12bba62f6"><mxGeometry x="336" y="60" width="48" height="48" as="geometry" /></mxCell><mxCell id="4f2a91219ebd4548a5b7a065cce4ff98-icon" value="" style="shape=mxgraph.ibm_cloud.ibm-cloud--logging;fillColor=#ffffff;strokeColor=none;dashed=0;outlineConnect=0;part=1;movable=0;resizable=0;rotatable=0;" vertex="1" parent="4f2a91219ebd4548a5b7a065cce4ff98"><mxGeometry width="24" height="24" relative="1" as="geometry"><mxPoint x="12" y="12" as="offset" /></mxGeometry></mxCell><mxCell id="2b0ffa3ca56b42069ec42d2400465b50" value="&lt;b style='font-weight:600'&gt;Vector DB&lt;/b&gt;&lt;br&gt;" style="shape=rect;fillColor=#0f62fe;;aspect=fixed;resizable=0;html=1;labelPosition=center;verticalLabelPosition=bottom;align=center;verticalAlign=top;strokeColor=none;fontFamily=IBM Plex Sans;fontSize=14;" vertex="1" parent="fef96671491f406287fcfaf12bba62f6"><mxGeometry x="464" y="60" width="48" height="48" as="geometry" /></mxCell><mxCell id="2b0ffa3ca56b42069ec42d2400465b50-icon" value="" style="shape=mxgraph.ibm_cloud.data--base;fillColor=#ffffff;strokeColor=none;dashed=0;outlineConnect=0;part=1;movable=0;resizable=0;rotatable=0;" vertex="1" parent="2b0ffa3ca56b42069ec42d2400465b50"><mxGeometry width="24" height="24" relative="1" as="geometry"><mxPoint x="12" y="12" as="offset" /></mxGeometry></mxCell><mxCell id="43cfea8cb7ef4cd6b684ccf7f15a643f" value="&lt;b style='font-weight:600'&gt;Granite LLM&lt;/b&gt;&lt;br&gt;" style="shape=rect;fillColor=#0f62fe;;aspect=fixed;resizable=0;html=1;labelPosition=center;verticalLabelPosition=bottom;align=center;verticalAlign=top;strokeColor=none;fontFamily=IBM Plex Sans;fontSize=14;" vertex="1" parent="fef96671491f406287fcfaf12bba62f6"><mxGeometry x="592" y="60" width="48" height="48" as="geometry" /></mxCell><mxCell id="43cfea8cb7ef4cd6b684ccf7f15a643f-icon" value="" style="shape=mxgraph.ibm_cloud.data--base;fillColor=#ffffff;strokeColor=none;dashed=0;outlineConnect=0;part=1;movable=0;resizable=0;rotatable=0;" vertex="1" parent="43cfea8cb7ef4cd6b684ccf7f15a643f"><mxGeometry width="24" height="24" relative="1" as="geometry"><mxPoint x="12" y="12" as="offset" /></mxGeometry></mxCell><mxCell id="65878b164dce43989d50b00f03d286a8" value="&lt;b style='font-weight:600'&gt;Output&lt;/b&gt;&lt;br&gt;" style="shape=rect;fillColor=#009d9a;;aspect=fixed;resizable=0;html=1;labelPosition=center;verticalLabelPosition=bottom;align=center;verticalAlign=top;strokeColor=none;fontFamily=IBM Plex Sans;fontSize=14;" vertex="1" parent="d5864348bd6d483bb3f1699352cfc9b0"><mxGeometry x="988" y="114" width="48" height="48" as="geometry" /></mxCell><mxCell id="65878b164dce43989d50b00f03d286a8-icon" value="" style="shape=mxgraph.ibm_cloud.ibm-cloud--logging;fillColor=#ffffff;strokeColor=none;dashed=0;outlineConnect=0;part=1;movable=0;resizable=0;rotatable=0;" vertex="1" parent="65878b164dce43989d50b00f03d286a8"><mxGeometry width="24" height="24" relative="1" as="geometry"><mxPoint x="12" y="12" as="offset" /></mxGeometry></mxCell><mxCell id="c6eb91215c474914a7208c11477a1110" value="" style="container=1;collapsible=0;expand=0;recursiveResize=0;image=;strokeColor=#a56eff;fillColor=#ffffff;strokeWidth=1;" vertex="1" parent="bd06138213d14a2c886c346341701dd9"><mxGeometry x="20" y="348" width="972" height="780" as="geometry" /></mxCell><mxCell id="c6eb91215c474914a7208c11477a1110-label" value="&lt;b style='font-weight:600'&gt;watsonx Orch&lt;/b&gt;&lt;br&gt;Manage Agents" style="shape=rect;strokeColor=none;fillColor=none;aspect=fixed;resizable=0;html=1;labelPosition=right;verticalLabelPosition=middle;align=left;verticalAlign=middle;part=1;spacingLeft=5;fontFamily=IBM Plex Sans;fontSize=14;" vertex="1" parent="c6eb91215c474914a7208c11477a1110"><mxGeometry width="48" height="48" relative="1" as="geometry" /></mxCell><mxCell id="c6eb91215c474914a7208c11477a1110-icon" value="" style="shape=mxgraph.ibm_cloud.ibm-watsonx--orchestrate;strokeColor=none;fillColor=#a56eff;aspect=fixed;resizable=0;rotatable=0;labelPosition=right;verticalLabelPosition=middle;align=left;verticalAlign=middle;part=1;dashed=0;outlineConnect=0;spacingLeft=5;" vertex="1" parent="c6eb91215c474914a7208c11477a1110-label"><mxGeometry width="24" height="24" relative="1" as="geometry"><mxPoint x="12" y="12" as="offset" /></mxGeometry></mxCell><mxCell id="c6eb91215c474914a7208c11477a1110-sidebar" value="" style="shape=rect;strokeColor=none;fillColor=#a56eff;aspect=fixed;resizable=0;part=1;spacingLeft=5;" vertex="1" parent="c6eb91215c474914a7208c11477a1110"><mxGeometry width="4" height="48" relative="1" as="geometry" /></mxCell><mxCell id="5dd2c59bb4ae44efb9abfe7d81b51eff" value="&lt;b style='font-weight:600'&gt;Agent&lt;/b&gt;&lt;br&gt;Engineer" style="shape=rect;fillColor=#a56eff;;aspect=fixed;resizable=0;html=1;labelPosition=center;verticalLabelPosition=bottom;align=center;verticalAlign=top;strokeColor=none;fontFamily=IBM Plex Sans;fontSize=14;" vertex="1" parent="c6eb91215c474914a7208c11477a1110"><mxGeometry x="80" y="175" width="48" height="48" as="geometry" /></mxCell><mxCell id="5dd2c59bb4ae44efb9abfe7d81b51eff-icon" value="" style="shape=mxgraph.ibm_cloud.ibm-watson--studio;fillColor=#ffffff;strokeColor=none;dashed=0;outlineConnect=0;part=1;movable=0;resizable=0;rotatable=0;" vertex="1" parent="5dd2c59bb4ae44efb9abfe7d81b51eff"><mxGeometry width="24" height="24" relative="1" as="geometry"><mxPoint x="12" y="12" as="offset" /></mxGeometry></mxCell><mxCell id="4761f3728d0a44f08ea1da08bcb2e158" value="&lt;b style='font-weight:600'&gt;Agent&lt;/b&gt;&lt;br&gt;Researcher" style="shape=rect;fillColor=#a56eff;;aspect=fixed;resizable=0;html=1;labelPosition=center;verticalLabelPosition=bottom;align=center;verticalAlign=top;strokeColor=none;fontFamily=IBM Plex Sans;fontSize=14;" vertex="1" parent="c6eb91215c474914a7208c11477a1110"><mxGeometry x="80" y="565" width="48" height="48" as="geometry" /></mxCell><mxCell id="4761f3728d0a44f08ea1da08bcb2e158-icon" value="" style="shape=mxgraph.ibm_cloud.ibm-watson--studio;fillColor=#ffffff;strokeColor=none;dashed=0;outlineConnect=0;part=1;movable=0;resizable=0;rotatable=0;" vertex="1" parent="4761f3728d0a44f08ea1da08bcb2e158"><mxGeometry width="24" height="24" relative="1" as="geometry"><mxPoint x="12" y="12" as="offset" /></mxGeometry></mxCell><mxCell id="bfc8bfac158b403ab31308b32dc5e758" value="" style="container=1;collapsible=0;expand=0;recursiveResize=0;image=;strokeColor=#a56eff;fillColor=#f6f2ff;" vertex="1" parent="c6eb91215c474914a7208c11477a1110"><mxGeometry x="188" y="60" width="240" height="700" as="geometry" /></mxCell><mxCell id="bfc8bfac158b403ab31308b32dc5e758-label" value="&lt;b style='font-weight:600'&gt;Disease Agents&lt;/b&gt;&lt;br&gt;" style="shape=rect;strokeColor=none;fillColor=#a56eff;aspect=fixed;resizable=0;html=1;labelPosition=right;verticalLabelPosition=middle;align=left;verticalAlign=middle;part=1;spacingLeft=5;fontFamily=IBM Plex Sans;fontSize=14;" vertex="1" parent="bfc8bfac158b403ab31308b32dc5e758"><mxGeometry width="48" height="48" relative="1" as="geometry" /></mxCell><mxCell id="bfc8bfac158b403ab31308b32dc5e758-icon" value="" style="shape=mxgraph.ibm_cloud.application;fillColor=#ffffff;strokeColor=none;dashed=0;outlineConnect=0;html=1;labelPosition=center;verticalLabelPosition=bottom;verticalAlign=top;part=1;movable=0;resizable=0;rotatable=0;" vertex="1" parent="bfc8bfac158b403ab31308b32dc5e758-label"><mxGeometry width="24" height="24" relative="1" as="geometry"><mxPoint x="12" y="12" as="offset" /></mxGeometry></mxCell><mxCell id="feabbbe075414114bdd4754675b85e8b" value="&lt;b style='font-weight:600'&gt;Agent&lt;/b&gt;&lt;br&gt;Autism" style="shape=rect;fillColor=#a56eff;;aspect=fixed;resizable=0;html=1;labelPosition=center;verticalLabelPosition=bottom;align=center;verticalAlign=top;strokeColor=none;fontFamily=IBM Plex Sans;fontSize=14;" vertex="1" parent="bfc8bfac158b403ab31308b32dc5e758"><mxGeometry x="96.0" y="60" width="48" height="48" as="geometry" /></mxCell><mxCell id="feabbbe075414114bdd4754675b85e8b-icon" value="" style="shape=mxgraph.ibm_cloud.ibm-watson--studio;fillColor=#ffffff;strokeColor=none;dashed=0;outlineConnect=0;part=1;movable=0;resizable=0;rotatable=0;" vertex="1" parent="feabbbe075414114bdd4754675b85e8b"><mxGeometry width="24" height="24" relative="1" as="geometry"><mxPoint x="12" y="12" as="offset" /></mxGeometry></mxCell><mxCell id="1d1856128dff497c844353f642900a66" value="&lt;b style='font-weight:600'&gt;Agent&lt;/b&gt;&lt;br&gt;Cancer" style="shape=rect;fillColor=#a56eff;;aspect=fixed;resizable=0;html=1;labelPosition=center;verticalLabelPosition=bottom;align=center;verticalAlign=top;strokeColor=none;fontFamily=IBM Plex Sans;fontSize=14;" vertex="1" parent="bfc8bfac158b403ab31308b32dc5e758"><mxGeometry x="96.0" y="188" width="48" height="48" as="geometry" /></mxCell><mxCell id="1d1856128dff497c844353f642900a66-icon" value="" style="shape=mxgraph.ibm_cloud.ibm-watson--studio;fillColor=#ffffff;strokeColor=none;dashed=0;outlineConnect=0;part=1;movable=0;resizable=0;rotatable=0;" vertex="1" parent="1d1856128dff497c844353f642900a66"><mxGeometry width="24" height="24" relative="1" as="geometry"><mxPoint x="12" y="12" as="offset" /></mxGeometry></mxCell><mxCell id="1f411a7db54d46d0b7183f4a62010231" value="&lt;b style='font-weight:600'&gt;Agent&lt;/b&gt;&lt;br&gt;Dimentia" style="shape=rect;fillColor=#a56eff;;aspect=fixed;resizable=0;html=1;labelPosition=center;verticalLabelPosition=bottom;align=center;verticalAlign=top;strokeColor=none;fontFamily=IBM Plex Sans;fontSize=14;" vertex="1" parent="bfc8bfac158b403ab31308b32dc5e758"><mxGeometry x="96.0" y="316" width="48" height="48" as="geometry" /></mxCell><mxCell id="1f411a7db54d46d0b7183f4a62010231-icon" value="" style="shape=mxgraph.ibm_cloud.ibm-watson--studio;fillColor=#ffffff;strokeColor=none;dashed=0;outlineConnect=0;part=1;movable=0;resizable=0;rotatable=0;" vertex="1" parent="1f411a7db54d46d0b7183f4a62010231"><mxGeometry width="24" height="24" relative="1" as="geometry"><mxPoint x="12" y="12" as="offset" /></mxGeometry></mxCell><mxCell id="25dcf8d1bf96442393ca980e65480542" value="&lt;b style='font-weight:600'&gt;Agent&lt;/b&gt;&lt;br&gt;Epilepsy" style="shape=rect;fillColor=#a56eff;;aspect=fixed;resizable=0;html=1;labelPosition=center;verticalLabelPosition=bottom;align=center;verticalAlign=top;strokeColor=none;fontFamily=IBM Plex Sans;fontSize=14;" vertex="1" parent="bfc8bfac158b403ab31308b32dc5e758"><mxGeometry x="96.0" y="444" width="48" height="48" as="geometry" /></mxCell><mxCell id="25dcf8d1bf96442393ca980e65480542-icon" value="" style="shape=mxgraph.ibm_cloud.ibm-watson--studio;fillColor=#ffffff;strokeColor=none;dashed=0;outlineConnect=0;part=1;movable=0;resizable=0;rotatable=0;" vertex="1" parent="25dcf8d1bf96442393ca980e65480542"><mxGeometry width="24" height="24" relative="1" as="geometry"><mxPoint x="12" y="12" as="offset" /></mxGeometry></mxCell><mxCell id="95a216f8bb0d48569c7c4655b2b17baf" value="&lt;b style='font-weight:600'&gt;Agent&lt;/b&gt;&lt;br&gt;Rare" style="shape=rect;fillColor=#a56eff;;aspect=fixed;resizable=0;html=1;labelPosition=center;verticalLabelPosition=bottom;align=center;verticalAlign=top;strokeColor=none;fontFamily=IBM Plex Sans;fontSize=14;" vertex="1" parent="bfc8bfac158b403ab31308b32dc5e758"><mxGeometry x="96.0" y="572" width="48" height="48" as="geometry" /></mxCell><mxCell id="95a216f8bb0d48569c7c4655b2b17baf-icon" value="" style="shape=mxgraph.ibm_cloud.ibm-watson--studio;fillColor=#ffffff;strokeColor=none;dashed=0;outlineConnect=0;part=1;movable=0;resizable=0;rotatable=0;" vertex="1" parent="95a216f8bb0d48569c7c4655b2b17baf"><mxGeometry width="24" height="24" relative="1" as="geometry"><mxPoint x="12" y="12" as="offset" /></mxGeometry></mxCell><mxCell id="cc76e5531f2e45cd9d3e8666d90742ad" value="" style="container=1;collapsible=0;expand=0;recursiveResize=0;image=;strokeColor=#a56eff;fillColor=#f6f2ff;" vertex="1" parent="c6eb91215c474914a7208c11477a1110"><mxGeometry x="448" y="60" width="504" height="684" as="geometry" /></mxCell><mxCell id="cc76e5531f2e45cd9d3e8666d90742ad-label" value="&lt;b style='font-weight:600'&gt;Backend Agents&lt;/b&gt;&lt;br&gt;" style="shape=rect;strokeColor=none;fillColor=#a56eff;aspect=fixed;resizable=0;html=1;labelPosition=right;verticalLabelPosition=middle;align=left;verticalAlign=middle;part=1;spacingLeft=5;fontFamily=IBM Plex Sans;fontSize=14;" vertex="1" parent="cc76e5531f2e45cd9d3e8666d90742ad"><mxGeometry width="48" height="48" relative="1" as="geometry" /></mxCell><mxCell id="cc76e5531f2e45cd9d3e8666d90742ad-icon" value="" style="shape=mxgraph.ibm_cloud.application;fillColor=#ffffff;strokeColor=none;dashed=0;outlineConnect=0;html=1;labelPosition=center;verticalLabelPosition=bottom;verticalAlign=top;part=1;movable=0;resizable=0;rotatable=0;" vertex="1" parent="cc76e5531f2e45cd9d3e8666d90742ad-label"><mxGeometry width="24" height="24" relative="1" as="geometry"><mxPoint x="12" y="12" as="offset" /></mxGeometry></mxCell><mxCell id="8157c8302a9e479d830ebe1d7da70e8e" value="" style="container=1;collapsible=0;expand=0;recursiveResize=0;image=;strokeColor=#a56eff;fillColor=#f6f2ff;" vertex="1" parent="cc76e5531f2e45cd9d3e8666d90742ad"><mxGeometry x="20" y="60" width="464" height="188" as="geometry" /></mxCell><mxCell id="8157c8302a9e479d830ebe1d7da70e8e-label" value="&lt;b style='font-weight:600'&gt;RAG&lt;/b&gt;&lt;br&gt;" style="shape=rect;strokeColor=none;fillColor=#a56eff;aspect=fixed;resizable=0;html=1;labelPosition=right;verticalLabelPosition=middle;align=left;verticalAlign=middle;part=1;spacingLeft=5;fontFamily=IBM Plex Sans;fontSize=14;" vertex="1" parent="8157c8302a9e479d830ebe1d7da70e8e"><mxGeometry width="48" height="48" relative="1" as="geometry" /></mxCell><mxCell id="8157c8302a9e479d830ebe1d7da70e8e-icon" value="" style="shape=mxgraph.ibm_cloud.application;fillColor=#ffffff;strokeColor=none;dashed=0;outlineConnect=0;html=1;labelPosition=center;verticalLabelPosition=bottom;verticalAlign=top;part=1;movable=0;resizable=0;rotatable=0;" vertex="1" parent="8157c8302a9e479d830ebe1d7da70e8e-label"><mxGeometry width="24" height="24" relative="1" as="geometry"><mxPoint x="12" y="12" as="offset" /></mxGeometry></mxCell><mxCell id="f76e544d0ea7405db478f9ae5027d2cb" value="&lt;b style='font-weight:600'&gt;Agent&lt;/b&gt;&lt;br&gt;Ingestor" style="shape=rect;fillColor=#a56eff;;aspect=fixed;resizable=0;html=1;labelPosition=center;verticalLabelPosition=bottom;align=center;verticalAlign=top;strokeColor=none;fontFamily=IBM Plex Sans;fontSize=14;" vertex="1" parent="8157c8302a9e479d830ebe1d7da70e8e"><mxGeometry x="80" y="60" width="48" height="48" as="geometry" /></mxCell><mxCell id="f76e544d0ea7405db478f9ae5027d2cb-icon" value="" style="shape=mxgraph.ibm_cloud.ibm-watson--studio;fillColor=#ffffff;strokeColor=none;dashed=0;outlineConnect=0;part=1;movable=0;resizable=0;rotatable=0;" vertex="1" parent="f76e544d0ea7405db478f9ae5027d2cb"><mxGeometry width="24" height="24" relative="1" as="geometry"><mxPoint x="12" y="12" as="offset" /></mxGeometry></mxCell><mxCell id="5e54a1ed96994e32af7b24666f2fa1ee" value="&lt;b style='font-weight:600'&gt;Vector DB&lt;/b&gt;&lt;br&gt;" style="shape=rect;fillColor=#0f62fe;;aspect=fixed;resizable=0;html=1;labelPosition=center;verticalLabelPosition=bottom;align=center;verticalAlign=top;strokeColor=none;fontFamily=IBM Plex Sans;fontSize=14;" vertex="1" parent="8157c8302a9e479d830ebe1d7da70e8e"><mxGeometry x="208" y="60" width="48" height="48" as="geometry" /></mxCell><mxCell id="5e54a1ed96994e32af7b24666f2fa1ee-icon" value="" style="shape=mxgraph.ibm_cloud.data--base;fillColor=#ffffff;strokeColor=none;dashed=0;outlineConnect=0;part=1;movable=0;resizable=0;rotatable=0;" vertex="1" parent="5e54a1ed96994e32af7b24666f2fa1ee"><mxGeometry width="24" height="24" relative="1" as="geometry"><mxPoint x="12" y="12" as="offset" /></mxGeometry></mxCell><mxCell id="65ebc631706f42a09ffb1ad442c9a89f" value="&lt;b style='font-weight:600'&gt;Granite LLM&lt;/b&gt;&lt;br&gt;" style="shape=rect;fillColor=#0f62fe;;aspect=fixed;resizable=0;html=1;labelPosition=center;verticalLabelPosition=bottom;align=center;verticalAlign=top;strokeColor=none;fontFamily=IBM Plex Sans;fontSize=14;" vertex="1" parent="8157c8302a9e479d830ebe1d7da70e8e"><mxGeometry x="336" y="60" width="48" height="48" as="geometry" /></mxCell><mxCell id="65ebc631706f42a09ffb1ad442c9a89f-icon" value="" style="shape=mxgraph.ibm_cloud.data--base;fillColor=#ffffff;strokeColor=none;dashed=0;outlineConnect=0;part=1;movable=0;resizable=0;rotatable=0;" vertex="1" parent="65ebc631706f42a09ffb1ad442c9a89f"><mxGeometry width="24" height="24" relative="1" as="geometry"><mxPoint x="12" y="12" as="offset" /></mxGeometry></mxCell><mxCell id="b9adab1b466f44ee8d3252f6610fe41a" value="" style="container=1;collapsible=0;expand=0;recursiveResize=0;image=;strokeColor=#a56eff;fillColor=#f6f2ff;" vertex="1" parent="cc76e5531f2e45cd9d3e8666d90742ad"><mxGeometry x="20" y="268" width="464" height="188" as="geometry" /></mxCell><mxCell id="b9adab1b466f44ee8d3252f6610fe41a-label" value="&lt;b style='font-weight:600'&gt;Response&lt;/b&gt;&lt;br&gt;" style="shape=rect;strokeColor=none;fillColor=#a56eff;aspect=fixed;resizable=0;html=1;labelPosition=right;verticalLabelPosition=middle;align=left;verticalAlign=middle;part=1;spacingLeft=5;fontFamily=IBM Plex Sans;fontSize=14;" vertex="1" parent="b9adab1b466f44ee8d3252f6610fe41a"><mxGeometry width="48" height="48" relative="1" as="geometry" /></mxCell><mxCell id="b9adab1b466f44ee8d3252f6610fe41a-icon" value="" style="shape=mxgraph.ibm_cloud.application;fillColor=#ffffff;strokeColor=none;dashed=0;outlineConnect=0;html=1;labelPosition=center;verticalLabelPosition=bottom;verticalAlign=top;part=1;movable=0;resizable=0;rotatable=0;" vertex="1" parent="b9adab1b466f44ee8d3252f6610fe41a-label"><mxGeometry width="24" height="24" relative="1" as="geometry"><mxPoint x="12" y="12" as="offset" /></mxGeometry></mxCell><mxCell id="180df22684fe4ee0967216dc422ff52e" value="&lt;b style='font-weight:600'&gt;Agent&lt;/b&gt;&lt;br&gt;Retriever" style="shape=rect;fillColor=#a56eff;;aspect=fixed;resizable=0;html=1;labelPosition=center;verticalLabelPosition=bottom;align=center;verticalAlign=top;strokeColor=none;fontFamily=IBM Plex Sans;fontSize=14;" vertex="1" parent="b9adab1b466f44ee8d3252f6610fe41a"><mxGeometry x="80" y="60" width="48" height="48" as="geometry" /></mxCell><mxCell id="180df22684fe4ee0967216dc422ff52e-icon" value="" style="shape=mxgraph.ibm_cloud.ibm-watson--studio;fillColor=#ffffff;strokeColor=none;dashed=0;outlineConnect=0;part=1;movable=0;resizable=0;rotatable=0;" vertex="1" parent="180df22684fe4ee0967216dc422ff52e"><mxGeometry width="24" height="24" relative="1" as="geometry"><mxPoint x="12" y="12" as="offset" /></mxGeometry></mxCell><mxCell id="6add80a01ce747a288ee54ff2776df71" value="&lt;b style='font-weight:600'&gt;Agent&lt;/b&gt;&lt;br&gt;Synthesizer" style="shape=rect;fillColor=#a56eff;;aspect=fixed;resizable=0;html=1;labelPosition=center;verticalLabelPosition=bottom;align=center;verticalAlign=top;strokeColor=none;fontFamily=IBM Plex Sans;fontSize=14;" vertex="1" parent="b9adab1b466f44ee8d3252f6610fe41a"><mxGeometry x="208" y="60" width="48" height="48" as="geometry" /></mxCell><mxCell id="6add80a01ce747a288ee54ff2776df71-icon" value="" style="shape=mxgraph.ibm_cloud.ibm-watson--studio;fillColor=#ffffff;strokeColor=none;dashed=0;outlineConnect=0;part=1;movable=0;resizable=0;rotatable=0;" vertex="1" parent="6add80a01ce747a288ee54ff2776df71"><mxGeometry width="24" height="24" relative="1" as="geometry"><mxPoint x="12" y="12" as="offset" /></mxGeometry></mxCell><mxCell id="5b4eee5a12904a3db6e13bb05fc5c028" value="&lt;b style='font-weight:600'&gt;Agent&lt;/b&gt;&lt;br&gt;Validator" style="shape=rect;fillColor=#a56eff;;aspect=fixed;resizable=0;html=1;labelPosition=center;verticalLabelPosition=bottom;align=center;verticalAlign=top;strokeColor=none;fontFamily=IBM Plex Sans;fontSize=14;" vertex="1" parent="b9adab1b466f44ee8d3252f6610fe41a"><mxGeometry x="336" y="60" width="48" height="48" as="geometry" /></mxCell><mxCell id="5b4eee5a12904a3db6e13bb05fc5c028-icon" value="" style="shape=mxgraph.ibm_cloud.ibm-watson--studio;fillColor=#ffffff;strokeColor=none;dashed=0;outlineConnect=0;part=1;movable=0;resizable=0;rotatable=0;" vertex="1" parent="5b4eee5a12904a3db6e13bb05fc5c028"><mxGeometry width="24" height="24" relative="1" as="geometry"><mxPoint x="12" y="12" as="offset" /></mxGeometry></mxCell><mxCell id="4bee63299adc49cdbf6e2e3b7971de93" value="&lt;b style='font-weight:600'&gt;Output&lt;/b&gt;&lt;br&gt;" style="shape=rect;fillColor=#009d9a;;aspect=fixed;resizable=0;html=1;labelPosition=center;verticalLabelPosition=bottom;align=center;verticalAlign=top;strokeColor=none;fontFamily=IBM Plex Sans;fontSize=14;" vertex="1" parent="cc76e5531f2e45cd9d3e8666d90742ad"><mxGeometry x="232" y="536" width="48" height="48" as="geometry" /></mxCell><mxCell id="4bee63299adc49cdbf6e2e3b7971de93-icon" value="" style="shape=mxgraph.ibm_cloud.ibm-cloud--logging;fillColor=#ffffff;strokeColor=none;dashed=0;outlineConnect=0;part=1;movable=0;resizable=0;rotatable=0;" vertex="1" parent="4bee63299adc49cdbf6e2e3b7971de93"><mxGeometry width="24" height="24" relative="1" as="geometry"><mxPoint x="12" y="12" as="offset" /></mxGeometry></mxCell><mxCell id="1231a802bf0f4686a16a02b1b6f6bc6b" value="" style="container=1;collapsible=0;expand=0;recursiveResize=0;image=;strokeColor=#a56eff;fillColor=#ffffff;strokeWidth=1;" vertex="1" parent="bd06138213d14a2c886c346341701dd9"><mxGeometry x="20" y="1148" width="592" height="188" as="geometry" /></mxCell><mxCell id="1231a802bf0f4686a16a02b1b6f6bc6b-label" value="&lt;b style='font-weight:600'&gt;watsonx Govern&lt;/b&gt;&lt;br&gt;Govern AI" style="shape=rect;strokeColor=none;fillColor=none;aspect=fixed;resizable=0;html=1;labelPosition=right;verticalLabelPosition=middle;align=left;verticalAlign=middle;part=1;spacingLeft=5;fontFamily=IBM Plex Sans;fontSize=14;" vertex="1" parent="1231a802bf0f4686a16a02b1b6f6bc6b"><mxGeometry width="48" height="48" relative="1" as="geometry" /></mxCell><mxCell id="1231a802bf0f4686a16a02b1b6f6bc6b-icon" value="" style="shape=mxgraph.ibm_cloud.watsonx-governance;strokeColor=none;fillColor=#a56eff;aspect=fixed;resizable=0;rotatable=0;labelPosition=right;verticalLabelPosition=middle;align=left;verticalAlign=middle;part=1;dashed=0;outlineConnect=0;spacingLeft=5;" vertex="1" parent="1231a802bf0f4686a16a02b1b6f6bc6b-label"><mxGeometry width="24" height="24" relative="1" as="geometry"><mxPoint x="12" y="12" as="offset" /></mxGeometry></mxCell><mxCell id="1231a802bf0f4686a16a02b1b6f6bc6b-sidebar" value="" style="shape=rect;strokeColor=none;fillColor=#a56eff;aspect=fixed;resizable=0;part=1;spacingLeft=5;" vertex="1" parent="1231a802bf0f4686a16a02b1b6f6bc6b"><mxGeometry width="4" height="48" relative="1" as="geometry" /></mxCell><mxCell id="68429f910b4a45c1964f4042e3c32310" value="&lt;b style='font-weight:600'&gt;Observability&lt;/b&gt;&lt;br&gt;Alerts/Errors" style="shape=rect;fillColor=#009d9a;;aspect=fixed;resizable=0;html=1;labelPosition=center;verticalLabelPosition=bottom;align=center;verticalAlign=top;strokeColor=none;fontFamily=IBM Plex Sans;fontSize=14;" vertex="1" parent="1231a802bf0f4686a16a02b1b6f6bc6b"><mxGeometry x="80" y="60" width="48" height="48" as="geometry" /></mxCell><mxCell id="68429f910b4a45c1964f4042e3c32310-icon" value="" style="shape=mxgraph.ibm_cloud.cloud--monitoring;fillColor=#ffffff;strokeColor=none;dashed=0;outlineConnect=0;part=1;movable=0;resizable=0;rotatable=0;" vertex="1" parent="68429f910b4a45c1964f4042e3c32310"><mxGeometry width="24" height="24" relative="1" as="geometry"><mxPoint x="12" y="12" as="offset" /></mxGeometry></mxCell><mxCell id="f2c807f8de8748a196f0732c5cdde508" value="&lt;b style='font-weight:600'&gt;Compliance&lt;/b&gt;&lt;br&gt;Audits/Traces" style="shape=rect;fillColor=#009d9a;;aspect=fixed;resizable=0;html=1;labelPosition=center;verticalLabelPosition=bottom;align=center;verticalAlign=top;strokeColor=none;fontFamily=IBM Plex Sans;fontSize=14;" vertex="1" parent="1231a802bf0f4686a16a02b1b6f6bc6b"><mxGeometry x="208" y="60" width="48" height="48" as="geometry" /></mxCell><mxCell id="f2c807f8de8748a196f0732c5cdde508-icon" value="" style="shape=mxgraph.ibm_cloud.cloud--monitoring;fillColor=#ffffff;strokeColor=none;dashed=0;outlineConnect=0;part=1;movable=0;resizable=0;rotatable=0;" vertex="1" parent="f2c807f8de8748a196f0732c5cdde508"><mxGeometry width="24" height="24" relative="1" as="geometry"><mxPoint x="12" y="12" as="offset" /></mxGeometry></mxCell><mxCell id="014ff975fbb0492996d8a73a2ef52064" value="&lt;b style='font-weight:600'&gt;Lifecycle&lt;/b&gt;&lt;br&gt;Deploy/Version" style="shape=rect;fillColor=#009d9a;;aspect=fixed;resizable=0;html=1;labelPosition=center;verticalLabelPosition=bottom;align=center;verticalAlign=top;strokeColor=none;fontFamily=IBM Plex Sans;fontSize=14;" vertex="1" parent="1231a802bf0f4686a16a02b1b6f6bc6b"><mxGeometry x="336" y="60" width="48" height="48" as="geometry" /></mxCell><mxCell id="014ff975fbb0492996d8a73a2ef52064-icon" value="" style="shape=mxgraph.ibm_cloud.cloud--monitoring;fillColor=#ffffff;strokeColor=none;dashed=0;outlineConnect=0;part=1;movable=0;resizable=0;rotatable=0;" vertex="1" parent="014ff975fbb0492996d8a73a2ef52064"><mxGeometry width="24" height="24" relative="1" as="geometry"><mxPoint x="12" y="12" as="offset" /></mxGeometry></mxCell><mxCell id="c619877c9265431b9cfb97b2bb284cb4" value="&lt;b style='font-weight:600'&gt;Inventory&lt;/b&gt;&lt;br&gt;Agents/Tools" style="shape=rect;fillColor=#009d9a;;aspect=fixed;resizable=0;html=1;labelPosition=center;verticalLabelPosition=bottom;align=center;verticalAlign=top;strokeColor=none;fontFamily=IBM Plex Sans;fontSize=14;" vertex="1" parent="1231a802bf0f4686a16a02b1b6f6bc6b"><mxGeometry x="464" y="60" width="48" height="48" as="geometry" /></mxCell><mxCell id="c619877c9265431b9cfb97b2bb284cb4-icon" value="" style="shape=mxgraph.ibm_cloud.cloud--monitoring;fillColor=#ffffff;strokeColor=none;dashed=0;outlineConnect=0;part=1;movable=0;resizable=0;rotatable=0;" vertex="1" parent="c619877c9265431b9cfb97b2bb284cb4"><mxGeometry width="24" height="24" relative="1" as="geometry"><mxPoint x="12" y="12" as="offset" /></mxGeometry></mxCell><UserObject id="7f637cfd1bda4d50b4ca95267df0e438" label=""><mxCell style="dashed=0;strokeWidth=1;fontFamily=IBM Plex Sans;fontSize=14;html=1;rounded=0;jumpStyle=gap;strokeColor=#000000;startArrow=none;startFill=0;endArrow=block;endFill=1;" edge="1" parent="1" source="20e9e965db0b4d0dad0e955d3e27703a" target="924bd83637ec478ba24c5e5c10d0de9e"><mxGeometry relative="1" as="geometry" /></mxCell></UserObject><UserObject id="57fd9592c2d34cd68ba47b7adf59365f" label=""><mxCell style="dashed=0;strokeWidth=1;fontFamily=IBM Plex Sans;fontSize=14;html=1;rounded=0;jumpStyle=gap;strokeColor=#000000;startArrow=none;startFill=0;endArrow=block;endFill=1;" edge="1" parent="1" source="924bd83637ec478ba24c5e5c10d0de9e" target="8b3dae3003be4e3db51d933fbb654194"><mxGeometry relative="1" as="geometry" /></mxCell></UserObject><UserObject id="7d2eb2e4c2d14a54bd5c02ab647e9e8f" label=""><mxCell style="dashed=0;strokeWidth=1;fontFamily=IBM Plex Sans;fontSize=14;html=1;rounded=0;jumpStyle=gap;strokeColor=#000000;startArrow=none;startFill=0;endArrow=block;endFill=1;" edge="1" parent="1" source="0fe63ce1ccdf439cae52a2da50a22c41" target="fe36fae120d24d01a780a2d069d1bd45"><mxGeometry relative="1" as="geometry" /></mxCell></UserObject><UserObject id="1178659c59ab41fe88732a78af634aa6" label=""><mxCell style="dashed=0;strokeWidth=1;fontFamily=IBM Plex Sans;fontSize=14;html=1;rounded=0;jumpStyle=gap;strokeColor=#000000;startArrow=none;startFill=0;endArrow=block;endFill=1;" edge="1" parent="1" source="fe36fae120d24d01a780a2d069d1bd45" target="4f2a91219ebd4548a5b7a065cce4ff98"><mxGeometry relative="1" as="geometry" /></mxCell></UserObject><UserObject id="0edd49af2076477eafe335650b907484" label=""><mxCell style="dashed=0;strokeWidth=1;fontFamily=IBM Plex Sans;fontSize=14;html=1;rounded=0;jumpStyle=gap;strokeColor=#000000;startArrow=none;startFill=0;endArrow=block;endFill=1;" edge="1" parent="1" source="4f2a91219ebd4548a5b7a065cce4ff98" target="2b0ffa3ca56b42069ec42d2400465b50"><mxGeometry relative="1" as="geometry" /></mxCell></UserObject><UserObject id="cde774b5be3e48a4a88270219d907e7e" label=""><mxCell style="dashed=0;strokeWidth=1;fontFamily=IBM Plex Sans;fontSize=14;html=1;rounded=0;jumpStyle=gap;strokeColor=#000000;startArrow=none;startFill=0;endArrow=block;endFill=1;" edge="1" parent="1" source="2b0ffa3ca56b42069ec42d2400465b50" target="43cfea8cb7ef4cd6b684ccf7f15a643f"><mxGeometry relative="1" as="geometry" /></mxCell></UserObject><UserObject id="9e2f5ee1e5164b2dadb33a2ec75a2c18" label="Query"><mxCell style="dashed=0;strokeWidth=2;fontFamily=IBM Plex Sans;fontSize=14;html=1;rounded=0;jumpStyle=gap;strokeColor=#000000;startArrow=none;startFill=0;endArrow=block;endFill=1;" edge="1" parent="1" source="8b3dae3003be4e3db51d933fbb654194" target="0fe63ce1ccdf439cae52a2da50a22c41"><mxGeometry relative="1" as="geometry" /></mxCell></UserObject><UserObject id="d1e647eeec594b5e8ef3bd863804d837" label="Reply"><mxCell style="dashed=0;strokeWidth=2;fontFamily=IBM Plex Sans;fontSize=14;html=1;rounded=0;jumpStyle=gap;strokeColor=#000000;startArrow=none;startFill=0;endArrow=block;endFill=1;" edge="1" parent="1" source="43cfea8cb7ef4cd6b684ccf7f15a643f" target="65878b164dce43989d50b00f03d286a8"><mxGeometry relative="1" as="geometry" /></mxCell></UserObject><UserObject id="7e4a27a4c49944ca8abb4876e0867e3b" label=""><mxCell style="dashed=0;strokeWidth=1;fontFamily=IBM Plex Sans;fontSize=14;html=1;rounded=0;jumpStyle=gap;strokeColor=#000000;startArrow=none;startFill=0;endArrow=block;endFill=1;" edge="1" parent="1" source="924bd83637ec478ba24c5e5c10d0de9e" target="5dd2c59bb4ae44efb9abfe7d81b51eff"><mxGeometry relative="1" as="geometry" /></mxCell></UserObject><UserObject id="eb32783a697141bdaa0a6093e7f96ade" label=""><mxCell style="dashed=0;strokeWidth=1;fontFamily=IBM Plex Sans;fontSize=14;html=1;rounded=0;jumpStyle=gap;strokeColor=#000000;startArrow=none;startFill=0;endArrow=block;endFill=1;" edge="1" parent="1" source="4e91c3a19b964d469503a44414a8090a" target="4761f3728d0a44f08ea1da08bcb2e158"><mxGeometry relative="1" as="geometry" /></mxCell></UserObject><UserObject id="6620eb7854cb495f8f253734e3587642" label="Query"><mxCell style="dashed=0;strokeWidth=2;fontFamily=IBM Plex Sans;fontSize=14;html=1;rounded=0;jumpStyle=gap;strokeColor=#000000;startArrow=none;startFill=0;endArrow=block;endFill=1;" edge="1" parent="1" source="4761f3728d0a44f08ea1da08bcb2e158" target="bfc8bfac158b403ab31308b32dc5e758"><mxGeometry relative="1" as="geometry" /></mxCell></UserObject><UserObject id="7ecddcb517a249fa8e79088d8014ff82" label="Setup"><mxCell style="dashed=0;strokeWidth=2;fontFamily=IBM Plex Sans;fontSize=14;html=1;rounded=0;jumpStyle=gap;strokeColor=#000000;startArrow=none;startFill=0;endArrow=block;endFill=1;" edge="1" parent="1" source="5dd2c59bb4ae44efb9abfe7d81b51eff" target="bfc8bfac158b403ab31308b32dc5e758"><mxGeometry relative="1" as="geometry" /></mxCell></UserObject><UserObject id="58dfc0af0e32461eaa7bc9ca53a78b89" label=""><mxCell style="dashed=0;strokeWidth=1;fontFamily=IBM Plex Sans;fontSize=14;html=1;rounded=0;jumpStyle=gap;strokeColor=#000000;startArrow=none;startFill=0;endArrow=block;endFill=1;" edge="1" parent="1" source="bfc8bfac158b403ab31308b32dc5e758" target="8157c8302a9e479d830ebe1d7da70e8e"><mxGeometry relative="1" as="geometry" /></mxCell></UserObject><UserObject id="2f784ff8bb7949ffa332f2f969a88acb" label=""><mxCell style="dashed=0;strokeWidth=1;fontFamily=IBM Plex Sans;fontSize=14;html=1;rounded=0;jumpStyle=gap;strokeColor=#000000;startArrow=none;startFill=0;endArrow=block;endFill=1;" edge="1" parent="1" source="f76e544d0ea7405db478f9ae5027d2cb" target="5e54a1ed96994e32af7b24666f2fa1ee"><mxGeometry relative="1" as="geometry" /></mxCell></UserObject><UserObject id="41145298892545b3a68507785f1040ac" label=""><mxCell style="dashed=0;strokeWidth=1;fontFamily=IBM Plex Sans;fontSize=14;html=1;rounded=0;jumpStyle=gap;strokeColor=#000000;startArrow=none;startFill=0;endArrow=block;endFill=1;" edge="1" parent="1" source="5e54a1ed96994e32af7b24666f2fa1ee" target="65ebc631706f42a09ffb1ad442c9a89f"><mxGeometry relative="1" as="geometry" /></mxCell></UserObject><UserObject id="46a3664828a04807a0c3166cb385d76b" label=""><mxCell style="dashed=0;strokeWidth=1;fontFamily=IBM Plex Sans;fontSize=14;html=1;rounded=0;jumpStyle=gap;strokeColor=#000000;startArrow=none;startFill=0;endArrow=block;endFill=1;" edge="1" parent="1" source="180df22684fe4ee0967216dc422ff52e" target="6add80a01ce747a288ee54ff2776df71"><mxGeometry relative="1" as="geometry" /></mxCell></UserObject><UserObject id="ee0982a15d454e548c85b8a893e47662" label=""><mxCell style="dashed=0;strokeWidth=1;fontFamily=IBM Plex Sans;fontSize=14;html=1;rounded=0;jumpStyle=gap;strokeColor=#000000;startArrow=none;startFill=0;endArrow=block;endFill=1;" edge="1" parent="1" source="6add80a01ce747a288ee54ff2776df71" target="5b4eee5a12904a3db6e13bb05fc5c028"><mxGeometry relative="1" as="geometry" /></mxCell></UserObject><UserObject id="caf3acaf3cc74acdb0a5b0e425e47502" label=""><mxCell style="dashed=0;strokeWidth=1;fontFamily=IBM Plex Sans;fontSize=14;html=1;rounded=0;jumpStyle=gap;strokeColor=#000000;startArrow=none;startFill=0;endArrow=block;endFill=1;" edge="1" parent="1" source="8157c8302a9e479d830ebe1d7da70e8e" target="b9adab1b466f44ee8d3252f6610fe41a"><mxGeometry relative="1" as="geometry" /></mxCell></UserObject><UserObject id="42543fb5cf2f43b7a17e9b6ba2bda777" label=""><mxCell style="dashed=0;strokeWidth=1;fontFamily=IBM Plex Sans;fontSize=14;html=1;rounded=0;jumpStyle=gap;strokeColor=#000000;startArrow=none;startFill=0;endArrow=block;endFill=1;" edge="1" parent="1" source="b9adab1b466f44ee8d3252f6610fe41a" target="4bee63299adc49cdbf6e2e3b7971de93"><mxGeometry relative="1" as="geometry" /></mxCell></UserObject><UserObject id="529fa1cb568c43f78cbaa43290f25041" label="Reply"><mxCell style="dashed=0;strokeWidth=2;fontFamily=IBM Plex Sans;fontSize=14;html=1;rounded=0;jumpStyle=gap;strokeColor=#000000;startArrow=none;startFill=0;endArrow=block;endFill=1;" edge="1" parent="1" source="4bee63299adc49cdbf6e2e3b7971de93" target="4761f3728d0a44f08ea1da08bcb2e158"><mxGeometry relative="1" as="geometry" /></mxCell></UserObject><UserObject id="91aa3bba49484917b8f180a06c57f95c" label=""><mxCell style="dashed=0;strokeWidth=1;fontFamily=IBM Plex Sans;fontSize=14;html=1;rounded=0;jumpStyle=gap;strokeColor=#000000;startArrow=none;startFill=0;endArrow=block;endFill=1;" edge="1" parent="1" source="1231a802bf0f4686a16a02b1b6f6bc6b" target="c6eb91215c474914a7208c11477a1110"><mxGeometry relative="1" as="geometry" /></mxCell></UserObject></root></mxGraphModel></diagram></mxfile>